<svg xmlns="http://www.w3.org/2000/svg" xmlns:xlink="http://www.w3.org/1999/xlink" contentStyleType="text/css" height="1293.75px" preserveAspectRatio="none" style="width:988px;height:1293px;" version="1.1" viewBox="0 0 988 1293" width="988.5417px" zoomAndPan="magnify"><defs><linearGradient id="gs1x23bakgx2z0" x1="50%" x2="50%" y1="0%" y2="100%"><stop offset="0%" stop-color="#D3F198"/><stop offset="100%" stop-color="#B5E853"/></linearGradient><linearGradient id="gs1x23bakgx2z1" x1="50%" x2="50%" y1="0%" y2="100%"><stop offset="0%" stop-color="#88B2C4"/><stop offset="100%" stop-color="#6A9FB5"/></linearGradient></defs><g><ellipse cx="494.7378" cy="20.8333" fill="#AA759F" rx="10.4167" ry="10.4167" style="stroke:#6D8B32;stroke-width:1.0416666666666667;"/><rect fill="#151515" height="314.4368" rx="20.8333" ry="20.8333" style="stroke:#B5E853;stroke-width:1.0416666666666667;" width="358.5632" x="315.4561" y="41.6667"/><path d="M358.8114,41.6667 L358.8114,59.3424 L348.3948,69.7591 L315.4561,69.7591 " fill="none" style="stroke:#B5E853;stroke-width:1.0416666666666667;"/><text fill="#B5E853" font-family="Verdana" font-size="12.5" lengthAdjust="spacing" textLength="22.522" x="323.7895" y="59.5194">GUI</text><rect fill="url(#gs1x23bakgx2z0)" height="37.4674" rx="20.8333" ry="20.8333" style="stroke:#D3F198;stroke-width:1.0416666666666667;" width="254.2887" x="367.5934" y="87.4674"/><text fill="#151515" font-family="Verdana" font-size="12.5" lengthAdjust="spacing" textLength="231.3721" x="379.0517" y="110.5286">Choose video source, save directory.</text><rect fill="url(#gs1x23bakgx2z0)" height="37.4674" rx="20.8333" ry="20.8333" style="stroke:#D3F198;stroke-width:1.0416666666666667;" width="161.3078" x="414.0839" y="202.002"/><text fill="#151515" font-family="Verdana" font-size="12.5" lengthAdjust="spacing" textLength="138.3911" x="425.5422" y="225.0631">Choose starting point.</text><polygon fill="url(#gs1x23bakgx2z1)" points="389.7339,145.7682,599.7416,145.7682,612.2416,158.2682,599.7416,170.7682,389.7339,170.7682,377.2339,158.2682,389.7339,145.7682" style="stroke:#88B2C4;stroke-width:1.0416666666666667;"/><text fill="#FFFFFF" font-family="Verdana" font-size="12.5" lengthAdjust="spacing" textLength="21.6003" x="504.1128" y="187.5793">yes</text><text fill="#FEFEFE" font-family="Verdana" font-size="12.5" lengthAdjust="spacing" textLength="199.5911" x="394.9422" y="162.5956">Does the movie have title card?</text><text fill="#FFFFFF" font-family="Verdana" font-size="12.5" lengthAdjust="spacing" textLength="15.5701" x="617.45" y="150.1119">no</text><polygon fill="url(#gs1x23bakgx2z1)" points="494.7378,260.3027,507.2378,272.8027,494.7378,285.3027,482.2378,272.8027,494.7378,260.3027" style="stroke:#88B2C4;stroke-width:1.0416666666666667;"/><rect fill="url(#gs1x23bakgx2z0)" height="37.4674" rx="20.8333" ry="20.8333" style="stroke:#D3F198;stroke-width:1.0416666666666667;" width="337.7299" x="325.8728" y="306.1361"/><text fill="#151515" font-family="Verdana" font-size="12.5" lengthAdjust="spacing" textLength="314.8132" x="337.3311" y="329.1972">Choose area to look for VFX/ADR text and TC text.</text><polygon fill="url(#gs1x23bakgx2z1)" points="402.417,376.9368,587.0585,376.9368,599.5585,389.4368,587.0585,401.9368,402.417,401.9368,389.917,389.4368,402.417,376.9368" style="stroke:#88B2C4;stroke-width:1.0416666666666667;"/><text fill="#FEFEFE" font-family="Verdana" font-size="12.5" lengthAdjust="spacing" textLength="174.2249" x="407.6253" y="393.7642">All steps in the GUI passed?</text><rect fill="#151515" height="818.1966" rx="20.8333" ry="20.8333" style="stroke:#B5E853;stroke-width:1.0416666666666667;" width="966.5588" x="11.4583" y="421.0144"/><path d="M51.6703,421.0144 L51.6703,438.6902 L41.2537,449.1069 L11.4583,449.1069 " fill="none" style="stroke:#B5E853;stroke-width:1.0416666666666667;"/><text fill="#B5E853" font-family="Verdana" font-size="12.5" lengthAdjust="spacing" textLength="19.3787" x="19.7917" y="438.8672">CLI</text><rect fill="url(#gs1x23bakgx2z0)" height="37.4674" rx="20.8333" ry="20.8333" style="stroke:#D3F198;stroke-width:1.0416666666666667;" width="144.5414" x="422.467" y="466.8152"/><text fill="#151515" font-family="Verdana" font-size="12.5" lengthAdjust="spacing" textLength="121.6248" x="433.9254" y="489.8763">Start of the engine.</text><rect fill="url(#gs1x23bakgx2z0)" height="66.569" rx="20.8333" ry="20.8333" style="stroke:#D3F198;stroke-width:1.0416666666666667;" width="389.622" x="299.9268" y="570.9493"/><text fill="#151515" font-family="Verdana" font-size="12.5" lengthAdjust="spacing" textLength="115.3809" x="311.3851" y="594.0104">Reads next frame.</text><text fill="#151515" font-family="Verdana" font-size="12.5" lengthAdjust="spacing" textLength="260.8154" x="311.3851" y="608.5612">Image processing is applied to the frame.</text><text fill="#151515" font-family="Verdana" font-size="12.5" lengthAdjust="spacing" textLength="366.7053" x="311.3851" y="623.112">Cropps processed frame to the chosen VFX/ADR text area.</text><rect fill="url(#gs1x23bakgx2z0)" height="37.4674" rx="20.8333" ry="20.8333" style="stroke:#D3F198;stroke-width:1.0416666666666667;" width="372.9533" x="308.2611" y="658.3516"/><text fill="#151515" font-family="Verdana" font-size="12.5" lengthAdjust="spacing" textLength="350.0366" x="319.7194" y="681.4128">Checks condition of number of black pixels in the frame</text><rect fill="url(#gs1x23bakgx2z0)" height="52.0182" rx="20.8333" ry="20.8333" style="stroke:#D3F198;stroke-width:1.0416666666666667;" width="321.7448" x="333.8654" y="716.6524"/><text fill="#151515" font-family="Verdana" font-size="12.5" lengthAdjust="spacing" textLength="298.8281" x="345.3237" y="739.7135">Cropps processed frame to the chosen TC area.</text><text fill="#151515" font-family="Verdana" font-size="12.5" lengthAdjust="spacing" textLength="227.3682" x="345.3237" y="754.2643">Saves cutouts of the frame for later.</text><polygon fill="url(#gs1x23bakgx2z1)" points="427.0355,525.116,562.44,525.116,574.94,537.616,562.44,550.116,427.0355,550.116,414.5355,537.616,427.0355,525.116" style="stroke:#88B2C4;stroke-width:1.0416666666666667;"/><text fill="#FEFEFE" font-family="Verdana" font-size="12.5" lengthAdjust="spacing" textLength="124.9878" x="432.2439" y="541.9434">checked all frames?</text><text fill="#FFFFFF" font-family="Verdana" font-size="12.5" lengthAdjust="spacing" textLength="21.6003" x="387.7268" y="529.4596">yes</text><rect fill="url(#gs1x23bakgx2z0)" height="37.4674" rx="20.8333" ry="20.8333" style="stroke:#D3F198;stroke-width:1.0416666666666667;" width="342.7531" x="323.3612" y="812.4207"/><text fill="#151515" font-family="Verdana" font-size="12.5" lengthAdjust="spacing" textLength="319.8364" x="334.8195" y="835.4818">Scans the whole movie to detect scene transitions.</text><rect fill="url(#gs1x23bakgx2z0)" height="37.4674" rx="20.8333" ry="20.8333" style="stroke:#D3F198;stroke-width:1.0416666666666667;" width="663.328" x="163.0737" y="870.7214"/><text fill="#151515" font-family="Verdana" font-size="12.5" lengthAdjust="spacing" textLength="640.4114" x="174.5321" y="893.7826">Compares found scenes with found images and text to separate scenes that will not be checked later.</text><rect fill="url(#gs1x23bakgx2z0)" height="37.4674" rx="20.8333" ry="20.8333" style="stroke:#D3F198;stroke-width:1.0416666666666667;" width="588.2426" x="200.6165" y="929.0222"/><text fill="#151515" font-family="Verdana" font-size="12.5" lengthAdjust="spacing" textLength="565.3259" x="212.0748" y="952.0833">Generates pictures from the first and last frame of each scene that possibly contains text.</text><line style="stroke:#B5E853;stroke-width:1.5625;" x1="267.451" x2="752.8137" y1="987.323" y2="987.323"/><rect fill="url(#gs1x23bakgx2z0)" height="81.1198" rx="20.8333" ry="20.8333" style="stroke:#D3F198;stroke-width:1.0416666666666667;" width="486.9853" x="23.9583" y="1008.1563"/><text fill="#151515" font-family="Verdana" font-size="12.5" lengthAdjust="spacing" textLength="443.7195" x="35.4167" y="1031.2174">Reads a couple of evenly spaced frames from each scene for VFX text.</text><text fill="#151515" font-family="Verdana" font-size="12.5" lengthAdjust="spacing" textLength="157.2876" x="35.4167" y="1045.7682">Granted it finds any text,</text><text fill="#151515" font-family="Verdana" font-size="12.5" lengthAdjust="spacing" textLength="464.0686" x="35.4167" y="1060.319">it uses an algorithm to construct the most probable text from each scene.</text><text fill="#151515" font-family="Verdana" font-size="12.5" lengthAdjust="spacing" textLength="432.2754" x="35.4167" y="1074.8698">Reads corresponding TC texts for each scene containing VFX effects.</text><rect fill="url(#gs1x23bakgx2z0)" height="81.1198" rx="20.8333" ry="20.8333" style="stroke:#D3F198;stroke-width:1.0416666666666667;" width="425.4069" x="540.1103" y="1008.1563"/><text fill="#151515" font-family="Verdana" font-size="12.5" lengthAdjust="spacing" textLength="337.1521" x="551.5686" y="1031.2174">Checks every nth frame to see if it contains ADR text.</text><text fill="#151515" font-family="Verdana" font-size="12.5" lengthAdjust="spacing" textLength="157.2876" x="551.5686" y="1045.7682">Granted it finds any text,</text><text fill="#151515" font-family="Verdana" font-size="12.5" lengthAdjust="spacing" textLength="402.4902" x="551.5686" y="1060.319">it deploys workers to find when in time the text starts and ends.</text><text fill="#151515" font-family="Verdana" font-size="12.5" lengthAdjust="spacing" textLength="317.9565" x="551.5686" y="1074.8698">Reads corresponding TC texts for each ADR effect.</text><line style="stroke:#B5E853;stroke-width:1.5625;" x1="267.451" x2="752.8137" y1="1110.1095" y2="1110.1095"/><rect fill="url(#gs1x23bakgx2z0)" height="37.4674" rx="20.8333" ry="20.8333" style="stroke:#D3F198;stroke-width:1.0416666666666667;" width="493.8395" x="247.818" y="1130.9428"/><text fill="#151515" font-family="Verdana" font-size="12.5" lengthAdjust="spacing" textLength="470.9229" x="259.2763" y="1154.0039">Merges findings into a dictionary and calculates REAL TC from scenes' TCs.</text><rect fill="url(#gs1x23bakgx2z0)" height="37.4674" rx="20.8333" ry="20.8333" style="stroke:#D3F198;stroke-width:1.0416666666666667;" width="397.0072" x="296.2341" y="1189.2436"/><text fill="#151515" font-family="Verdana" font-size="12.5" lengthAdjust="spacing" textLength="374.0906" x="307.6925" y="1212.3047">Builds summary spreadsheet and saves additional pictures.</text><ellipse cx="494.7378" cy="1271.5027" fill="none" rx="11.4583" ry="11.4583" style="stroke:#6D8B32;stroke-width:1.0416666666666667;"/><ellipse cx="494.7378" cy="1271.5027" fill="none" rx="6.25" ry="6.25" style="stroke:#6D8B32;stroke-width:1.0416666666666667;"/><line style="stroke:#B5E853;stroke-width:3.125;" x1="494.7378" x2="494.7378" y1="170.7682" y2="202.002"/><polygon fill="#B5E853" points="490.5711,191.5853,494.7378,202.002,498.9044,191.5853,494.7378,195.752" style="stroke:#B5E853;stroke-width:1.0416666666666667;"/><line style="stroke:#B5E853;stroke-width:3.125;" x1="612.2416" x2="624.7416" y1="158.2682" y2="158.2682"/><polygon fill="#B5E853" points="620.575,215.5273,624.7416,225.944,628.9083,215.5273,624.7416,219.694" style="stroke:#B5E853;stroke-width:3.125;"/><line style="stroke:#B5E853;stroke-width:3.125;" x1="624.7416" x2="624.7416" y1="158.2682" y2="272.8027"/><line style="stroke:#B5E853;stroke-width:3.125;" x1="624.7416" x2="507.2378" y1="272.8027" y2="272.8027"/><polygon fill="#B5E853" points="517.6544,268.6361,507.2378,272.8027,517.6544,276.9694,513.4878,272.8027" style="stroke:#B5E853;stroke-width:1.0416666666666667;"/><line style="stroke:#B5E853;stroke-width:3.125;" x1="494.7378" x2="494.7378" y1="239.4694" y2="260.3027"/><polygon fill="#B5E853" points="490.5711,249.8861,494.7378,260.3027,498.9044,249.8861,494.7378,254.0527" style="stroke:#B5E853;stroke-width:1.0416666666666667;"/><line style="stroke:#B5E853;stroke-width:3.125;" x1="494.7378" x2="494.7378" y1="124.9349" y2="145.7682"/><polygon fill="#B5E853" points="490.5711,135.3516,494.7378,145.7682,498.9044,135.3516,494.7378,139.5182" style="stroke:#B5E853;stroke-width:1.0416666666666667;"/><line style="stroke:#B5E853;stroke-width:3.125;" x1="494.7378" x2="494.7378" y1="285.3027" y2="306.1361"/><polygon fill="#B5E853" points="490.5711,295.7194,494.7378,306.1361,498.9044,295.7194,494.7378,299.8861" style="stroke:#B5E853;stroke-width:1.0416666666666667;"/><line style="stroke:#B5E853;stroke-width:3.125;" x1="494.7378" x2="494.7378" y1="31.25" y2="87.4674"/><polygon fill="#B5E853" points="490.5711,77.0508,494.7378,87.4674,498.9044,77.0508,494.7378,81.2174" style="stroke:#B5E853;stroke-width:1.0416666666666667;"/><line style="stroke:#B5E853;stroke-width:3.125;" x1="494.7378" x2="494.7378" y1="637.5183" y2="658.3516"/><polygon fill="#B5E853" points="490.5711,647.935,494.7378,658.3516,498.9044,647.935,494.7378,652.1016" style="stroke:#B5E853;stroke-width:1.0416666666666667;"/><line style="stroke:#B5E853;stroke-width:3.125;" x1="494.7378" x2="494.7378" y1="695.8191" y2="716.6524"/><polygon fill="#B5E853" points="490.5711,706.2358,494.7378,716.6524,498.9044,706.2358,494.7378,710.4024" style="stroke:#B5E853;stroke-width:1.0416666666666667;"/><line style="stroke:#B5E853;stroke-width:3.125;" x1="494.7378" x2="494.7378" y1="550.116" y2="570.9493"/><polygon fill="#B5E853" points="490.5711,560.5326,494.7378,570.9493,498.9044,560.5326,494.7378,564.6993" style="stroke:#B5E853;stroke-width:1.0416666666666667;"/><line style="stroke:#B5E853;stroke-width:3.125;" x1="494.7378" x2="494.7378" y1="768.6707" y2="779.0873"/><line style="stroke:#B5E853;stroke-width:3.125;" x1="494.7378" x2="702.0487" y1="779.0873" y2="779.0873"/><polygon fill="#B5E853" points="697.8821,662.5183,702.0487,652.1016,706.2154,662.5183,702.0487,658.3516" style="stroke:#B5E853;stroke-width:3.125;"/><line style="stroke:#B5E853;stroke-width:3.125;" x1="702.0487" x2="702.0487" y1="537.616" y2="779.0873"/><line style="stroke:#B5E853;stroke-width:3.125;" x1="702.0487" x2="574.94" y1="537.616" y2="537.616"/><polygon fill="#B5E853" points="585.3566,533.4493,574.94,537.616,585.3566,541.7826,581.19,537.616" style="stroke:#B5E853;stroke-width:1.0416666666666667;"/><line style="stroke:#B5E853;stroke-width:3.125;" x1="414.5355" x2="287.4268" y1="537.616" y2="537.616"/><polygon fill="#B5E853" points="283.2601,653.1433,287.4268,663.56,291.5934,653.1433,287.4268,657.31" style="stroke:#B5E853;stroke-width:3.125;"/><line style="stroke:#B5E853;stroke-width:3.125;" x1="287.4268" x2="287.4268" y1="537.616" y2="796.7957"/><line style="stroke:#B5E853;stroke-width:3.125;" x1="287.4268" x2="494.7378" y1="796.7957" y2="796.7957"/><line style="stroke:#B5E853;stroke-width:3.125;" x1="494.7378" x2="494.7378" y1="796.7957" y2="812.4207"/><polygon fill="#B5E853" points="490.5711,802.004,494.7378,812.4207,498.9044,802.004,494.7378,806.1707" style="stroke:#B5E853;stroke-width:1.0416666666666667;"/><line style="stroke:#B5E853;stroke-width:3.125;" x1="494.7378" x2="494.7378" y1="504.2826" y2="525.116"/><polygon fill="#B5E853" points="490.5711,514.6993,494.7378,525.116,498.9044,514.6993,494.7378,518.866" style="stroke:#B5E853;stroke-width:1.0416666666666667;"/><line style="stroke:#B5E853;stroke-width:3.125;" x1="494.7378" x2="494.7378" y1="849.8881" y2="870.7214"/><polygon fill="#B5E853" points="490.5711,860.3048,494.7378,870.7214,498.9044,860.3048,494.7378,864.4714" style="stroke:#B5E853;stroke-width:1.0416666666666667;"/><line style="stroke:#B5E853;stroke-width:3.125;" x1="494.7378" x2="494.7378" y1="908.1889" y2="929.0222"/><polygon fill="#B5E853" points="490.5711,918.6056,494.7378,929.0222,498.9044,918.6056,494.7378,922.7722" style="stroke:#B5E853;stroke-width:1.0416666666666667;"/><line style="stroke:#B5E853;stroke-width:3.125;" x1="267.451" x2="267.451" y1="988.8855" y2="1008.1563"/><polygon fill="#B5E853" points="263.2843,997.7397,267.451,1008.1563,271.6176,997.7397,267.451,1001.9063" style="stroke:#B5E853;stroke-width:1.0416666666666667;"/><line style="stroke:#B5E853;stroke-width:3.125;" x1="752.8137" x2="752.8137" y1="988.8855" y2="1008.1563"/><polygon fill="#B5E853" points="748.6471,997.7397,752.8137,1008.1563,756.9804,997.7397,752.8137,1001.9063" style="stroke:#B5E853;stroke-width:1.0416666666666667;"/><line style="stroke:#B5E853;stroke-width:3.125;" x1="267.451" x2="267.451" y1="1089.2761" y2="1110.1095"/><polygon fill="#B5E853" points="263.2843,1099.6928,267.451,1110.1095,271.6176,1099.6928,267.451,1103.8595" style="stroke:#B5E853;stroke-width:1.0416666666666667;"/><line style="stroke:#B5E853;stroke-width:3.125;" x1="752.8137" x2="752.8137" y1="1089.2761" y2="1110.1095"/><polygon fill="#B5E853" points="748.6471,1099.6928,752.8137,1110.1095,756.9804,1099.6928,752.8137,1103.8595" style="stroke:#B5E853;stroke-width:1.0416666666666667;"/><line style="stroke:#B5E853;stroke-width:3.125;" x1="494.7378" x2="494.7378" y1="966.4897" y2="987.323"/><polygon fill="#B5E853" points="490.5711,976.9063,494.7378,987.323,498.9044,976.9063,494.7378,981.073" style="stroke:#B5E853;stroke-width:1.0416666666666667;"/><line style="stroke:#B5E853;stroke-width:3.125;" x1="494.7378" x2="494.7378" y1="1111.672" y2="1130.9428"/><polygon fill="#B5E853" points="490.5711,1120.5261,494.7378,1130.9428,498.9044,1120.5261,494.7378,1124.6928" style="stroke:#B5E853;stroke-width:1.0416666666666667;"/><line style="stroke:#B5E853;stroke-width:3.125;" x1="494.7378" x2="494.7378" y1="1168.4102" y2="1189.2436"/><polygon fill="#B5E853" points="490.5711,1178.8269,494.7378,1189.2436,498.9044,1178.8269,494.7378,1182.9936" style="stroke:#B5E853;stroke-width:1.0416666666666667;"/><line style="stroke:#B5E853;stroke-width:3.125;" x1="494.7378" x2="494.7378" y1="1226.711" y2="1260.0444"/><polygon fill="#B5E853" points="490.5711,1249.6277,494.7378,1260.0444,498.9044,1249.6277,494.7378,1253.7944" style="stroke:#B5E853;stroke-width:1.0416666666666667;"/><line style="stroke:#B5E853;stroke-width:3.125;" x1="494.7378" x2="494.7378" y1="401.9368" y2="466.8152"/><polygon fill="#B5E853" points="490.5711,456.3985,494.7378,466.8152,498.9044,456.3985,494.7378,460.5652" style="stroke:#B5E853;stroke-width:1.0416666666666667;"/><text fill="#FFFFFF" font-family="Verdana" font-size="12.5" lengthAdjust="spacing" textLength="21.6003" x="504.1128" y="425.3418">yes</text><line style="stroke:#B5E853;stroke-width:3.125;" x1="494.7378" x2="494.7378" y1="343.6035" y2="376.9368"/><polygon fill="#B5E853" points="490.5711,366.5202,494.7378,376.9368,498.9044,366.5202,494.7378,370.6868" style="stroke:#B5E853;stroke-width:1.0416666666666667;"/><!--SRC=[ZLHDJzmm4BtpAwQdBXAYz-q1qQL5IFG2RTMhrvdTM3YsvN4Mzj_tZUsmq1Et99wPzp7F-LH6dfX6OvyudqankPmHxNES4zt-liFpUZF6A4m7Dt0aYNEsV45Y3ao3osnBpCVBhoXqErhTH1R2I9hYmUbOL1LNF9CrURWwrxD0goFBEJfEmokm2tjAqOLInx77zrM8MiXXSBjt3IQpeHB9n_X4kvZfpu-_Nwvl7gZmIo4J1lgrgSzjLXYg93pAiojsfDMrzq3b9EH2PGorb8m8WoRgh55u9KglXcpkgo6FIfRYhhPnsBl05ULvT12wiYF3p84C47RPJ2nNNUm3cq4eACDwS5a_tqrcpvHoj2oY7ZWXav9tc0652lAcUfDZ0kbUZf9wjXJQ4UQ4_yo0LPLVTG_SX6o4eSN5e2h2F6qvwzFM8mQKt0kyNsofuvVkZs33zufOMnuH0C3D9Sv55ijQboxDcy9vsL2thsTZ_MXDQ5bw7gDV4WMiWGjIHs8vu3sZgagHEcUzYLC2lc3-Z1JKAY4iVUnVdDejDIBL7amKHWkeBDLbD0Kjs5-8XROghQtqn7TzYqhjWHtEbhaYvZWrWIvB2w4tqdUjujaWUPstGgI8XM_zKVTHZ5EvIs85-zURs3DZK38dtwOSEA17ah7B2Zhsc_dzIhI1c7CBdmhA7UYue1F3iHvUwCqjD4lr1A7Tnmop9lK5jAJa6MQtAmqjsFtMR46aj1I_GrMWnjV634UInWo1xbTHAgit9BjiBL6klDjXiNBIJsQFuxDJRY4z7odeBfVa2RF-UL3yQkAI_8_e7ZZvU4H0OiOFK7IYrY5pYB9U0QSmOzTRVrCjEmYiV5olKchobhIVDloJimPIOT6i5mya37wkLcDj85ZnhF5szZLm3z-lxnMZkjyY-ndl_G9ycvq78vcdINibPMKuChT4IhsHPcZtt_ZN-Bx_KKg9wHy0]--></g></svg>